<svg xmlns="http://www.w3.org/2000/svg" xmlns:xlink="http://www.w3.org/1999/xlink" width="1980" zoomAndPan="magnify" viewBox="0 0 1485 809.999993" height="1080" preserveAspectRatio="xMidYMid meet" version="1.0"><defs><g/><clipPath id="f69d53738d"><path d="M 79.285156 136.398438 L 1406 136.398438 L 1406 673.398438 L 79.285156 673.398438 Z M 79.285156 136.398438 " clip-rule="nonzero"/></clipPath><clipPath id="0515c7bf55"><path d="M 299 216.164062 L 337 216.164062 L 337 228 L 299 228 Z M 299 216.164062 " clip-rule="nonzero"/></clipPath><clipPath id="af52fb9cfc"><path d="M 209.292969 218 L 233 218 L 233 246 L 209.292969 246 Z M 209.292969 218 " clip-rule="nonzero"/></clipPath></defs><rect x="-148.5" width="1782" fill="#ffffff" y="-80.999999" height="971.999992" fill-opacity="1"/><rect x="-148.5" width="1782" fill="#097cba" y="-80.999999" height="971.999992" fill-opacity="1"/><path fill="#ffffff" d="M 1287.8125 151.019531 L 197.25 151.019531 C 140.386719 151.019531 94.25 197.15625 94.25 254.019531 L 94.25 475.234375 C 94.25 532.097656 140.386719 578.234375 197.25 578.234375 L 202.542969 578.234375 C 206.140625 579.632812 233.105469 591.09375 217.089844 620.625 C 204.746094 643.402344 171.023438 640.316406 168.15625 646.78125 C 165.074219 653.761719 200.925781 672.054688 256.46875 642.445312 C 299.445312 619.597656 306.277344 580.804688 324.792969 578.234375 L 1287.8125 578.234375 C 1344.675781 578.234375 1390.816406 532.097656 1390.816406 475.234375 L 1390.816406 254.019531 C 1390.816406 197.15625 1344.675781 151.019531 1287.8125 151.019531 Z M 1287.8125 151.019531 " fill-opacity="1" fill-rule="nonzero"/><g clip-path="url(#f69d53738d)"><path fill="#ffffff" d="M 198.792969 673.449219 C 182.265625 673.449219 167.789062 669.117188 159.929688 661.84375 C 152.363281 654.789062 152.289062 646.339844 154.714844 640.832031 C 158.679688 631.867188 167.570312 629.808594 176.972656 627.679688 C 186.890625 625.402344 199.308594 622.609375 204.15625 613.648438 C 206.214844 609.828125 208.417969 604.390625 206.875 600.347656 C 205.625 596.96875 201.953125 594.398438 199.308594 593.003906 L 197.179688 593.003906 C 132.304688 593.003906 79.480469 540.179688 79.480469 475.304688 L 79.480469 254.09375 C 79.480469 189.222656 132.304688 136.398438 197.179688 136.398438 L 1287.8125 136.398438 C 1352.683594 136.398438 1405.507812 189.222656 1405.507812 254.09375 L 1405.507812 475.304688 C 1405.507812 540.179688 1352.683594 593.003906 1287.8125 593.003906 L 326.628906 593.003906 C 323.984375 594.398438 318.621094 601.964844 314.949219 607.035156 C 304.589844 621.433594 290.410156 641.125 263.371094 655.523438 C 235.527344 670.363281 212.972656 673.523438 199.015625 673.597656 L 198.722656 673.597656 Z M 197.25 165.710938 C 148.542969 165.710938 108.941406 205.3125 108.941406 254.019531 L 108.941406 475.234375 C 108.941406 523.941406 148.542969 563.542969 197.25 563.542969 L 202.542969 563.542969 C 204.304688 563.542969 206.140625 563.835938 207.832031 564.496094 C 212.53125 566.332031 228.402344 573.460938 234.5 590.0625 C 237.4375 598 239.054688 610.929688 230.019531 627.605469 C 226.859375 633.410156 222.820312 637.964844 218.410156 641.636719 C 227.445312 639.507812 237.878906 635.761719 249.5625 629.515625 C 270.5 618.347656 281.886719 602.554688 291.070312 589.84375 C 299.960938 577.5 308.410156 565.746094 322.734375 563.6875 C 323.394531 563.613281 324.132812 563.542969 324.792969 563.542969 L 1287.8125 563.542969 C 1336.523438 563.542969 1376.121094 523.941406 1376.121094 475.234375 L 1376.121094 254.019531 C 1376.121094 205.3125 1336.523438 165.710938 1287.8125 165.710938 Z M 197.25 165.710938 " fill-opacity="1" fill-rule="nonzero"/></g><path stroke-linecap="round" transform="matrix(12.312499, 0, 0, 12.312499, 1012.141131, 216.16492)" fill="none" stroke-linejoin="round" d="M 15.99996 2.999931 L 20.99996 2.999931 L 20.99996 7.999931 " stroke="#0c7cba" stroke-width="2" stroke-opacity="1" stroke-miterlimit="4"/><path stroke-linecap="round" transform="matrix(12.312499, 0, 0, 12.312499, 1012.141131, 216.16492)" fill="none" stroke-linejoin="round" d="M 7.999959 2.999931 L 2.999959 2.999931 L 2.999959 7.999931 " stroke="#0c7cba" stroke-width="2" stroke-opacity="1" stroke-miterlimit="4"/><path stroke-linecap="round" transform="matrix(12.312499, 0, 0, 12.312499, 1012.141131, 216.16492)" fill="none" stroke-linejoin="round" d="M 20.99996 2.999931 L 13.46411 10.536099 C 13.231876 10.768015 13.024706 11.020553 12.842599 11.293396 C 12.660176 11.566238 12.506305 11.854309 12.38067 12.157609 C 12.255036 12.460591 12.160176 12.773091 12.096089 13.095109 C 12.032003 13.41681 11.99996 13.741683 11.99996 14.070046 L 11.99996 20.999932 " stroke="#0c7cba" stroke-width="2" stroke-opacity="1" stroke-miterlimit="4"/><path stroke-linecap="round" transform="matrix(12.312499, 0, 0, 12.312499, 1012.141131, 216.16492)" fill="none" stroke-linejoin="round" d="M 5.999959 6.010083 L 5.999959 5.999931 " stroke="#0c7cba" stroke-width="2" stroke-opacity="1" stroke-miterlimit="4"/><path stroke-linecap="round" transform="matrix(12.312499, 0, 0, 12.312499, 1012.141131, 216.16492)" fill="none" stroke-linejoin="round" d="M 7.999959 8.019918 L 7.999959 8.010083 " stroke="#0c7cba" stroke-width="2" stroke-opacity="1" stroke-miterlimit="4"/><path stroke-linecap="round" transform="matrix(12.312499, 0, 0, 12.312499, 1012.141131, 216.16492)" fill="none" stroke-linejoin="round" d="M 9.99996 9.999931 L 9.99996 10.010083 " stroke="#0c7cba" stroke-width="2" stroke-opacity="1" stroke-miterlimit="4"/><path stroke-linecap="round" transform="matrix(1.877135, 0, 0, 1.875, 298.81593, 218.001292)" fill="none" stroke-linejoin="round" d="M 11.759782 6.565978 L 20.680874 2.582644 L 20.680874 13.824312 L 11.759782 17.365978 Z M 11.759782 6.565978 " stroke="#0c7cba" stroke-width="1.948" stroke-opacity="1" stroke-miterlimit="4"/><path stroke-linecap="round" transform="matrix(1.877135, 0, 0, 1.875, 298.81593, 218.001292)" fill="none" stroke-linejoin="round" d="M 8.921347 6.565978 L 0.000253826 2.582644 L 0.000253826 13.824312 L 8.921347 17.365978 Z M 8.921347 6.565978 " stroke="#0c7cba" stroke-width="1.948" stroke-opacity="1" stroke-miterlimit="4"/><g clip-path="url(#0515c7bf55)"><path stroke-linecap="round" transform="matrix(1.877135, 0, 0, 1.875, 298.81593, 218.001292)" fill="none" stroke-linejoin="round" d="M 1.340395 -0.000689191 L 10.35305 3.920144 L 19.274143 -0.000689191 " stroke="#0c7cba" stroke-width="1.948" stroke-opacity="1" stroke-miterlimit="4"/></g><g clip-path="url(#af52fb9cfc)"><path fill="#0c7cba" d="M 219.113281 245.257812 C 227.011719 245.257812 232.09375 240.035156 232.09375 232.070312 C 232.09375 224.8125 227.71875 218.957031 219.113281 218.957031 L 209.546875 218.957031 L 209.546875 245.257812 Z M 226.9375 232.070312 C 226.9375 237.035156 224.15625 240.777344 219.113281 240.777344 L 214.664062 240.777344 L 214.664062 223.441406 L 219.113281 223.441406 C 224.082031 223.441406 226.9375 226.996094 226.9375 232.070312 Z M 226.9375 232.070312 " fill-opacity="1" fill-rule="nonzero"/></g><path fill="#0c7cba" d="M 243.289062 245.628906 C 249.628906 245.628906 253.449219 240.921875 253.449219 235.589844 C 253.449219 230.183594 249.59375 225.515625 243.289062 225.515625 C 236.984375 225.515625 233.089844 230.183594 233.089844 235.589844 C 233.089844 240.921875 236.945312 245.628906 243.289062 245.628906 Z M 238.207031 235.589844 C 238.207031 232.21875 240.433594 229.738281 243.289062 229.738281 C 246.144531 229.738281 248.367188 232.183594 248.367188 235.554688 C 248.367188 238.960938 246.144531 241.40625 243.289062 241.40625 C 240.433594 241.40625 238.207031 238.996094 238.207031 235.589844 Z M 238.207031 235.589844 " fill-opacity="1" fill-rule="nonzero"/><path fill="#0c7cba" d="M 254.136719 235.554688 C 254.136719 240.921875 258.105469 245.628906 264.410156 245.628906 C 268.675781 245.628906 271.898438 243.515625 273.234375 240.589844 L 268.378906 239.109375 C 267.785156 240.40625 266.113281 241.40625 264.335938 241.40625 C 261.554688 241.40625 259.253906 238.960938 259.253906 235.554688 C 259.253906 232.109375 261.480469 229.738281 264.335938 229.738281 C 266.003906 229.738281 267.488281 230.550781 268.304688 231.960938 L 273.160156 230.476562 C 271.675781 227.515625 268.601562 225.515625 264.371094 225.515625 C 258.03125 225.515625 254.136719 230.144531 254.136719 235.554688 Z M 254.136719 235.554688 " fill-opacity="1" fill-rule="nonzero"/><path fill="#0c7cba" d="M 280.785156 245.628906 C 284.085938 245.628906 286.867188 244.292969 288.644531 241.628906 L 288.757812 243.21875 C 288.980469 244.628906 290.019531 245.515625 291.796875 245.515625 C 292.390625 245.515625 293.167969 245.441406 294.207031 245.257812 L 294.207031 241.035156 C 293.207031 240.996094 292.871094 240.589844 292.871094 239.554688 L 292.871094 225.847656 L 287.902344 225.847656 L 287.902344 237.886719 C 286.753906 240.257812 284.824219 241.40625 282.859375 241.40625 C 280.746094 241.40625 279.632812 239.886719 279.632812 236.921875 L 279.632812 225.847656 L 274.664062 225.847656 L 274.664062 237.996094 C 274.664062 243 276.777344 245.628906 280.785156 245.628906 Z M 280.785156 245.628906 " fill-opacity="1" fill-rule="nonzero"/><path fill="#0c7cba" d="M 372.433594 232.847656 C 372.433594 229.109375 371.394531 225.21875 366.609375 225.21875 C 363.53125 225.21875 361.011719 226.664062 359.453125 229.328125 C 358.933594 227.035156 357.191406 225.21875 353.964844 225.21875 C 350.773438 225.21875 348.179688 226.625 346.734375 229.144531 L 346.734375 225.550781 L 342.246094 225.550781 L 342.246094 244.960938 L 347.214844 244.960938 L 347.214844 233.625 C 347.957031 231.21875 349.921875 229.589844 351.851562 229.589844 C 353.703125 229.589844 354.855469 230.960938 354.855469 234.070312 L 354.855469 244.960938 L 359.824219 244.960938 L 359.824219 233.664062 C 360.566406 231.257812 362.492188 229.589844 364.421875 229.589844 C 366.3125 229.589844 367.460938 230.996094 367.460938 234.070312 L 367.460938 244.960938 L 372.433594 244.960938 Z M 372.433594 232.847656 " fill-opacity="1" fill-rule="nonzero"/><path fill="#0c7cba" d="M 380.65625 245.332031 C 383.476562 245.332031 386.035156 244.109375 387.777344 241.851562 L 387.886719 242.925781 C 388.148438 244.292969 389.113281 245.183594 390.964844 245.222656 C 391.558594 245.222656 392.414062 245.148438 393.339844 244.960938 L 393.339844 240.738281 C 392.375 240.703125 392.003906 240.292969 392.003906 239.257812 L 392.003906 233.21875 C 392.003906 228.070312 388.742188 225.21875 383.179688 225.21875 C 380.285156 225.21875 377.617188 226.03125 375.09375 227.699219 L 376.613281 230.847656 C 378.691406 229.402344 380.621094 228.664062 382.695312 228.664062 C 385.550781 228.664062 387.035156 230.109375 387.035156 232.664062 L 387.035156 233.773438 C 385.773438 233.21875 384.03125 232.921875 382.289062 232.921875 C 377.429688 232.921875 374.019531 235.480469 374.019531 239.183594 C 374.019531 242.703125 376.875 245.332031 380.65625 245.332031 Z M 382.066406 241.703125 C 380.175781 241.703125 378.726562 240.441406 378.726562 238.777344 C 378.726562 236.996094 380.546875 235.699219 383.105469 235.699219 C 384.363281 235.699219 385.847656 235.996094 387.035156 236.441406 L 387.035156 238.664062 C 387.035156 239.144531 386.738281 239.664062 386.21875 240.070312 C 385.367188 241.070312 383.734375 241.703125 382.066406 241.703125 Z M 382.066406 241.703125 " fill-opacity="1" fill-rule="nonzero"/><path fill="#0c7cba" d="M 405.667969 240.035156 C 405.074219 240.292969 404 240.738281 402.960938 240.738281 C 401.921875 240.738281 401.070312 240.21875 401.070312 238.847656 L 401.070312 229.367188 L 405.1875 229.367188 L 405.1875 225.550781 L 401.070312 225.550781 L 401.070312 219.253906 L 396.101562 219.253906 L 396.101562 225.550781 L 393.578125 225.550781 L 393.578125 229.367188 L 396.101562 229.367188 L 396.101562 240.515625 C 396.101562 243.960938 398.398438 245.292969 401.144531 245.292969 C 403.257812 245.292969 405.335938 244.554688 406.667969 243.960938 Z M 405.667969 240.035156 " fill-opacity="1" fill-rule="nonzero"/><path fill="#0c7cba" d="M 418.3125 240.035156 C 417.71875 240.292969 416.644531 240.738281 415.605469 240.738281 C 414.570312 240.738281 413.714844 240.21875 413.714844 238.847656 L 413.714844 229.367188 L 417.832031 229.367188 L 417.832031 225.550781 L 413.714844 225.550781 L 413.714844 219.253906 L 408.746094 219.253906 L 408.746094 225.550781 L 406.226562 225.550781 L 406.226562 229.367188 L 408.746094 229.367188 L 408.746094 240.515625 C 408.746094 243.960938 411.046875 245.292969 413.789062 245.292969 C 415.902344 245.292969 417.980469 244.554688 419.316406 243.960938 Z M 418.3125 240.035156 " fill-opacity="1" fill-rule="nonzero"/><g fill="#097cba" fill-opacity="1"><g transform="translate(209.291451, 384.733432)"><g><path d="M 25.671875 0.9375 C 20.566406 0.9375 16.300781 0.222656 12.875 -1.203125 C 9.457031 -2.640625 6.921875 -4.351562 5.265625 -6.34375 C 3.617188 -8.34375 2.796875 -10.148438 2.796875 -11.765625 C 2.796875 -12.390625 3.03125 -12.898438 3.5 -13.296875 C 3.96875 -13.703125 4.484375 -13.90625 5.046875 -13.90625 L 16.34375 -13.90625 C 16.71875 -13.90625 17.03125 -13.785156 17.28125 -13.546875 C 18.332031 -12.859375 18.921875 -12.453125 19.046875 -12.328125 C 20.234375 -11.453125 21.335938 -10.78125 22.359375 -10.3125 C 23.390625 -9.851562 24.617188 -9.625 26.046875 -9.625 C 27.734375 -9.625 29.117188 -9.945312 30.203125 -10.59375 C 31.296875 -11.25 31.84375 -12.171875 31.84375 -13.359375 C 31.84375 -14.347656 31.546875 -15.15625 30.953125 -15.78125 C 30.359375 -16.40625 29.238281 -17.007812 27.59375 -17.59375 C 25.945312 -18.1875 23.441406 -18.796875 20.078125 -19.421875 C 9.304688 -21.597656 3.921875 -26.578125 3.921875 -34.359375 C 3.921875 -36.910156 4.742188 -39.351562 6.390625 -41.6875 C 8.046875 -44.019531 10.472656 -45.898438 13.671875 -47.328125 C 16.878906 -48.765625 20.726562 -49.484375 25.21875 -49.484375 C 29.757812 -49.484375 33.691406 -48.78125 37.015625 -47.375 C 40.347656 -45.976562 42.882812 -44.300781 44.625 -42.34375 C 46.375 -40.382812 47.25 -38.59375 47.25 -36.96875 C 47.25 -36.414062 47.046875 -35.921875 46.640625 -35.484375 C 46.234375 -35.046875 45.75 -34.828125 45.1875 -34.828125 L 34.921875 -34.828125 C 34.359375 -34.828125 33.921875 -34.953125 33.609375 -35.203125 C 32.867188 -35.578125 32.125 -36.046875 31.375 -36.609375 C 30.25 -37.347656 29.265625 -37.921875 28.421875 -38.328125 C 27.585938 -38.734375 26.519531 -38.9375 25.21875 -38.9375 C 23.65625 -38.9375 22.4375 -38.59375 21.5625 -37.90625 C 20.695312 -37.226562 20.265625 -36.359375 20.265625 -35.296875 C 20.265625 -34.359375 20.523438 -33.59375 21.046875 -33 C 21.578125 -32.414062 22.664062 -31.84375 24.3125 -31.28125 C 25.96875 -30.71875 28.476562 -30.125 31.84375 -29.5 C 37.9375 -28.445312 42.367188 -26.566406 45.140625 -23.859375 C 47.910156 -21.148438 49.296875 -17.988281 49.296875 -14.375 C 49.296875 -9.707031 47.226562 -5.988281 43.09375 -3.21875 C 38.957031 -0.445312 33.148438 0.9375 25.671875 0.9375 Z M 25.671875 0.9375 "/></g></g></g><g fill="#097cba" fill-opacity="1"><g transform="translate(261.301204, 384.733432)"><g><path d="M 7.75 17.734375 C 7.0625 17.734375 6.484375 17.515625 6.015625 17.078125 C 5.554688 16.648438 5.328125 16.09375 5.328125 15.40625 L 5.328125 -46.21875 C 5.328125 -46.90625 5.554688 -47.46875 6.015625 -47.90625 C 6.484375 -48.34375 7.0625 -48.5625 7.75 -48.5625 L 18.859375 -48.5625 C 19.546875 -48.5625 20.109375 -48.34375 20.546875 -47.90625 C 20.984375 -47.46875 21.203125 -46.90625 21.203125 -46.21875 L 21.203125 -42.859375 C 24.554688 -47.273438 29.378906 -49.484375 35.671875 -49.484375 C 41.710938 -49.484375 46.457031 -47.597656 49.90625 -43.828125 C 53.363281 -40.066406 55.21875 -34.703125 55.46875 -27.734375 C 55.53125 -26.921875 55.5625 -25.769531 55.5625 -24.28125 C 55.5625 -22.78125 55.53125 -21.597656 55.46875 -20.734375 C 55.21875 -14.003906 53.347656 -8.707031 49.859375 -4.84375 C 46.378906 -0.988281 41.648438 0.9375 35.671875 0.9375 C 29.628906 0.9375 25.113281 -1.117188 22.125 -5.234375 L 22.125 15.40625 C 22.125 16.09375 21.90625 16.648438 21.46875 17.078125 C 21.039062 17.515625 20.484375 17.734375 19.796875 17.734375 Z M 30.25 -12.046875 C 33.050781 -12.046875 35.054688 -12.867188 36.265625 -14.515625 C 37.484375 -16.171875 38.1875 -18.460938 38.375 -21.390625 C 38.4375 -22.003906 38.46875 -22.96875 38.46875 -24.28125 C 38.46875 -25.582031 38.4375 -26.546875 38.375 -27.171875 C 38.1875 -30.097656 37.484375 -32.382812 36.265625 -34.03125 C 35.054688 -35.6875 33.050781 -36.515625 30.25 -36.515625 C 27.570312 -36.515625 25.578125 -35.65625 24.265625 -33.9375 C 22.960938 -32.226562 22.25 -30.066406 22.125 -27.453125 C 22.0625 -26.640625 22.03125 -25.457031 22.03125 -23.90625 C 22.03125 -22.40625 22.0625 -21.253906 22.125 -20.453125 C 22.25 -18.023438 22.976562 -16.015625 24.3125 -14.421875 C 25.65625 -12.835938 27.632812 -12.046875 30.25 -12.046875 Z M 30.25 -12.046875 "/></g></g></g><g fill="#097cba" fill-opacity="1"><g transform="translate(320.500817, 384.733432)"><g><path d="M 7.75 0 C 7.0625 0 6.484375 -0.21875 6.015625 -0.65625 C 5.554688 -1.09375 5.328125 -1.648438 5.328125 -2.328125 L 5.328125 -63.96875 C 5.328125 -64.644531 5.554688 -65.203125 6.015625 -65.640625 C 6.484375 -66.078125 7.0625 -66.296875 7.75 -66.296875 L 20.359375 -66.296875 C 21.046875 -66.296875 21.617188 -66.078125 22.078125 -65.640625 C 22.546875 -65.203125 22.78125 -64.644531 22.78125 -63.96875 L 22.78125 -43.140625 C 26.394531 -47.367188 31.28125 -49.484375 37.4375 -49.484375 C 40.988281 -49.484375 44.195312 -48.675781 47.0625 -47.0625 C 49.925781 -45.445312 52.164062 -43.050781 53.78125 -39.875 C 55.40625 -36.695312 56.21875 -32.867188 56.21875 -28.390625 L 56.21875 -2.328125 C 56.21875 -1.648438 55.984375 -1.09375 55.515625 -0.65625 C 55.046875 -0.21875 54.46875 0 53.78125 0 L 41.078125 0 C 40.460938 0 39.921875 -0.234375 39.453125 -0.703125 C 38.984375 -1.171875 38.75 -1.710938 38.75 -2.328125 L 38.75 -27.828125 C 38.75 -30.566406 38.0625 -32.695312 36.6875 -34.21875 C 35.320312 -35.75 33.363281 -36.515625 30.8125 -36.515625 C 28.320312 -36.515625 26.359375 -35.75 24.921875 -34.21875 C 23.492188 -32.695312 22.78125 -30.566406 22.78125 -27.828125 L 22.78125 -2.328125 C 22.78125 -1.648438 22.546875 -1.09375 22.078125 -0.65625 C 21.617188 -0.21875 21.046875 0 20.359375 0 Z M 7.75 0 "/></g></g></g><g fill="#097cba" fill-opacity="1"><g transform="translate(381.567934, 384.733432)"><g><path d="M 7.65625 -55.28125 C 6.96875 -55.28125 6.40625 -55.507812 5.96875 -55.96875 C 5.539062 -56.4375 5.328125 -57.015625 5.328125 -57.703125 L 5.328125 -66.390625 C 5.328125 -67.078125 5.554688 -67.648438 6.015625 -68.109375 C 6.484375 -68.578125 7.03125 -68.8125 7.65625 -68.8125 L 19.328125 -68.8125 C 20.015625 -68.8125 20.585938 -68.578125 21.046875 -68.109375 C 21.515625 -67.648438 21.75 -67.078125 21.75 -66.390625 L 21.75 -57.703125 C 21.75 -57.015625 21.515625 -56.4375 21.046875 -55.96875 C 20.585938 -55.507812 20.015625 -55.28125 19.328125 -55.28125 Z M 7.65625 0 C 7.03125 0 6.484375 -0.234375 6.015625 -0.703125 C 5.554688 -1.171875 5.328125 -1.710938 5.328125 -2.328125 L 5.328125 -46.21875 C 5.328125 -46.90625 5.554688 -47.46875 6.015625 -47.90625 C 6.484375 -48.34375 7.03125 -48.5625 7.65625 -48.5625 L 19.328125 -48.5625 C 20.015625 -48.5625 20.585938 -48.34375 21.046875 -47.90625 C 21.515625 -47.46875 21.75 -46.90625 21.75 -46.21875 L 21.75 -2.328125 C 21.75 -1.648438 21.515625 -1.09375 21.046875 -0.65625 C 20.585938 -0.21875 20.015625 0 19.328125 0 Z M 7.65625 0 "/></g></g></g><g fill="#097cba" fill-opacity="1"><g transform="translate(408.646624, 384.733432)"><g><path d="M 7.65625 0 C 7.03125 0 6.484375 -0.234375 6.015625 -0.703125 C 5.554688 -1.171875 5.328125 -1.710938 5.328125 -2.328125 L 5.328125 -46.21875 C 5.328125 -46.90625 5.554688 -47.46875 6.015625 -47.90625 C 6.484375 -48.34375 7.03125 -48.5625 7.65625 -48.5625 L 19.140625 -48.5625 C 19.828125 -48.5625 20.382812 -48.34375 20.8125 -47.90625 C 21.25 -47.46875 21.46875 -46.90625 21.46875 -46.21875 L 21.46875 -42.671875 C 23.15625 -44.722656 25.320312 -46.367188 27.96875 -47.609375 C 30.613281 -48.859375 33.644531 -49.484375 37.0625 -49.484375 C 40.613281 -49.484375 43.773438 -48.675781 46.546875 -47.0625 C 49.316406 -45.445312 51.492188 -43.050781 53.078125 -39.875 C 54.671875 -36.695312 55.46875 -32.867188 55.46875 -28.390625 L 55.46875 -2.328125 C 55.46875 -1.710938 55.25 -1.171875 54.8125 -0.703125 C 54.375 -0.234375 53.8125 0 53.125 0 L 40.71875 0 C 40.03125 0 39.453125 -0.21875 38.984375 -0.65625 C 38.515625 -1.09375 38.28125 -1.648438 38.28125 -2.328125 L 38.28125 -27.828125 C 38.28125 -30.628906 37.609375 -32.773438 36.265625 -34.265625 C 34.929688 -35.765625 32.988281 -36.515625 30.4375 -36.515625 C 27.945312 -36.515625 25.984375 -35.75 24.546875 -34.21875 C 23.117188 -32.695312 22.40625 -30.566406 22.40625 -27.828125 L 22.40625 -2.328125 C 22.40625 -1.710938 22.1875 -1.171875 21.75 -0.703125 C 21.320312 -0.234375 20.765625 0 20.078125 0 Z M 7.65625 0 "/></g></g></g><g fill="#097cba" fill-opacity="1"><g transform="translate(468.966732, 384.733432)"><g><path d="M 3.453125 0 C 2.890625 0 2.390625 -0.203125 1.953125 -0.609375 C 1.523438 -1.015625 1.3125 -1.523438 1.3125 -2.140625 C 1.3125 -2.640625 1.5 -3.109375 1.875 -3.546875 L 17.375 -24.9375 L 3.265625 -45 C 2.890625 -45.5 2.703125 -45.96875 2.703125 -46.40625 C 2.703125 -47.03125 2.921875 -47.546875 3.359375 -47.953125 C 3.796875 -48.359375 4.296875 -48.5625 4.859375 -48.5625 L 16.90625 -48.5625 C 17.644531 -48.5625 18.203125 -48.40625 18.578125 -48.09375 C 18.953125 -47.78125 19.328125 -47.375 19.703125 -46.875 L 27.921875 -35.390625 L 36.234375 -46.875 C 36.296875 -46.9375 36.445312 -47.125 36.6875 -47.4375 C 36.9375 -47.75 37.265625 -48.015625 37.671875 -48.234375 C 38.078125 -48.453125 38.53125 -48.5625 39.03125 -48.5625 L 50.515625 -48.5625 C 51.078125 -48.5625 51.570312 -48.359375 52 -47.953125 C 52.4375 -47.546875 52.65625 -47.0625 52.65625 -46.5 C 52.65625 -46 52.472656 -45.5 52.109375 -45 L 37.71875 -24.9375 L 53.5 -3.546875 C 53.8125 -3.109375 53.96875 -2.640625 53.96875 -2.140625 C 53.96875 -1.523438 53.765625 -1.015625 53.359375 -0.609375 C 52.953125 -0.203125 52.441406 0 51.828125 0 L 39.21875 0 C 38.15625 0 37.285156 -0.5 36.609375 -1.5 L 27.546875 -13.8125 L 18.390625 -1.5 C 18.015625 -1 17.640625 -0.625 17.265625 -0.375 C 16.898438 -0.125 16.375 0 15.6875 0 Z M 3.453125 0 "/></g></g></g><g fill="#097cba" fill-opacity="1"><g transform="translate(522.096966, 384.733432)"><g><path d="M 7.5625 -21.015625 C 6.875 -21.015625 6.296875 -21.226562 5.828125 -21.65625 C 5.367188 -22.09375 5.140625 -22.65625 5.140625 -23.34375 L 5.140625 -32.6875 C 5.140625 -33.363281 5.367188 -33.921875 5.828125 -34.359375 C 6.296875 -34.796875 6.875 -35.015625 7.5625 -35.015625 L 36.96875 -35.015625 C 37.65625 -35.015625 38.21875 -34.796875 38.65625 -34.359375 C 39.09375 -33.921875 39.3125 -33.363281 39.3125 -32.6875 L 39.3125 -23.34375 C 39.3125 -22.71875 39.09375 -22.171875 38.65625 -21.703125 C 38.21875 -21.242188 37.65625 -21.015625 36.96875 -21.015625 Z M 7.5625 -21.015625 "/></g></g></g><g fill="#097cba" fill-opacity="1"><g transform="translate(209.291451, 486.947335)"><g><path d="M 7.65625 0 C 7.03125 0 6.484375 -0.234375 6.015625 -0.703125 C 5.554688 -1.171875 5.328125 -1.710938 5.328125 -2.328125 L 5.328125 -46.125 C 5.328125 -46.8125 5.539062 -47.390625 5.96875 -47.859375 C 6.40625 -48.328125 6.96875 -48.5625 7.65625 -48.5625 L 19.046875 -48.5625 C 19.734375 -48.5625 20.304688 -48.328125 20.765625 -47.859375 C 21.234375 -47.390625 21.46875 -46.8125 21.46875 -46.125 L 21.46875 -42.578125 C 23.21875 -44.503906 25.257812 -45.984375 27.59375 -47.015625 C 29.925781 -48.046875 32.523438 -48.5625 35.390625 -48.5625 L 39.59375 -48.5625 C 40.28125 -48.5625 40.835938 -48.34375 41.265625 -47.90625 C 41.703125 -47.46875 41.921875 -46.90625 41.921875 -46.21875 L 41.921875 -36.046875 C 41.921875 -35.421875 41.703125 -34.875 41.265625 -34.40625 C 40.835938 -33.9375 40.28125 -33.703125 39.59375 -33.703125 L 30.15625 -33.703125 C 27.664062 -33.703125 25.75 -33.015625 24.40625 -31.640625 C 23.070312 -30.273438 22.40625 -28.347656 22.40625 -25.859375 L 22.40625 -2.328125 C 22.40625 -1.648438 22.171875 -1.09375 21.703125 -0.65625 C 21.242188 -0.21875 20.671875 0 19.984375 0 Z M 7.65625 0 "/></g></g></g><g fill="#097cba" fill-opacity="1"><g transform="translate(251.963733, 486.947335)"><g><path d="M 28.109375 0.9375 C 20.515625 0.9375 14.535156 -1.097656 10.171875 -5.171875 C 5.816406 -9.253906 3.578125 -15.1875 3.453125 -22.96875 L 3.453125 -25.859375 C 3.703125 -33.265625 6.003906 -39.050781 10.359375 -43.21875 C 14.722656 -47.394531 20.609375 -49.484375 28.015625 -49.484375 C 33.367188 -49.484375 37.894531 -48.410156 41.59375 -46.265625 C 45.300781 -44.117188 48.070312 -41.160156 49.90625 -37.390625 C 51.738281 -33.628906 52.65625 -29.351562 52.65625 -24.5625 L 52.65625 -22.21875 C 52.65625 -21.539062 52.421875 -20.96875 51.953125 -20.5 C 51.492188 -20.03125 50.921875 -19.796875 50.234375 -19.796875 L 20.640625 -19.796875 L 20.640625 -19.234375 C 20.703125 -16.429688 21.351562 -14.171875 22.59375 -12.453125 C 23.84375 -10.742188 25.617188 -9.890625 27.921875 -9.890625 C 29.410156 -9.890625 30.609375 -10.1875 31.515625 -10.78125 C 32.421875 -11.375 33.273438 -12.140625 34.078125 -13.078125 C 34.640625 -13.691406 35.09375 -14.078125 35.4375 -14.234375 C 35.78125 -14.390625 36.320312 -14.46875 37.0625 -14.46875 L 49.296875 -14.46875 C 49.859375 -14.46875 50.34375 -14.296875 50.75 -13.953125 C 51.15625 -13.617188 51.359375 -13.203125 51.359375 -12.703125 C 51.359375 -11.078125 50.4375 -9.175781 48.59375 -7 C 46.757812 -4.820312 44.082031 -2.953125 40.5625 -1.390625 C 37.050781 0.160156 32.898438 0.9375 28.109375 0.9375 Z M 35.484375 -29.3125 L 35.484375 -29.5 C 35.484375 -32.488281 34.828125 -34.804688 33.515625 -36.453125 C 32.210938 -38.109375 30.378906 -38.9375 28.015625 -38.9375 C 25.648438 -38.9375 23.828125 -38.109375 22.546875 -36.453125 C 21.273438 -34.804688 20.640625 -32.488281 20.640625 -29.5 L 20.640625 -29.3125 Z M 35.484375 -29.3125 "/></g></g></g><g fill="#097cba" fill-opacity="1"><g transform="translate(307.708482, 486.947335)"><g><path d="M 7.65625 0 C 7.03125 0 6.484375 -0.234375 6.015625 -0.703125 C 5.554688 -1.171875 5.328125 -1.710938 5.328125 -2.328125 L 5.328125 -46.125 C 5.328125 -46.8125 5.539062 -47.390625 5.96875 -47.859375 C 6.40625 -48.328125 6.96875 -48.5625 7.65625 -48.5625 L 19.046875 -48.5625 C 19.734375 -48.5625 20.304688 -48.328125 20.765625 -47.859375 C 21.234375 -47.390625 21.46875 -46.8125 21.46875 -46.125 L 21.46875 -42.578125 C 23.21875 -44.503906 25.257812 -45.984375 27.59375 -47.015625 C 29.925781 -48.046875 32.523438 -48.5625 35.390625 -48.5625 L 39.59375 -48.5625 C 40.28125 -48.5625 40.835938 -48.34375 41.265625 -47.90625 C 41.703125 -47.46875 41.921875 -46.90625 41.921875 -46.21875 L 41.921875 -36.046875 C 41.921875 -35.421875 41.703125 -34.875 41.265625 -34.40625 C 40.835938 -33.9375 40.28125 -33.703125 39.59375 -33.703125 L 30.15625 -33.703125 C 27.664062 -33.703125 25.75 -33.015625 24.40625 -31.640625 C 23.070312 -30.273438 22.40625 -28.347656 22.40625 -25.859375 L 22.40625 -2.328125 C 22.40625 -1.648438 22.171875 -1.09375 21.703125 -0.65625 C 21.242188 -0.21875 20.671875 0 19.984375 0 Z M 7.65625 0 "/></g></g></g><g fill="#097cba" fill-opacity="1"><g transform="translate(350.380764, 486.947335)"><g><path d="M 28.109375 0.9375 C 20.515625 0.9375 14.535156 -1.097656 10.171875 -5.171875 C 5.816406 -9.253906 3.578125 -15.1875 3.453125 -22.96875 L 3.453125 -25.859375 C 3.703125 -33.265625 6.003906 -39.050781 10.359375 -43.21875 C 14.722656 -47.394531 20.609375 -49.484375 28.015625 -49.484375 C 33.367188 -49.484375 37.894531 -48.410156 41.59375 -46.265625 C 45.300781 -44.117188 48.070312 -41.160156 49.90625 -37.390625 C 51.738281 -33.628906 52.65625 -29.351562 52.65625 -24.5625 L 52.65625 -22.21875 C 52.65625 -21.539062 52.421875 -20.96875 51.953125 -20.5 C 51.492188 -20.03125 50.921875 -19.796875 50.234375 -19.796875 L 20.640625 -19.796875 L 20.640625 -19.234375 C 20.703125 -16.429688 21.351562 -14.171875 22.59375 -12.453125 C 23.84375 -10.742188 25.617188 -9.890625 27.921875 -9.890625 C 29.410156 -9.890625 30.609375 -10.1875 31.515625 -10.78125 C 32.421875 -11.375 33.273438 -12.140625 34.078125 -13.078125 C 34.640625 -13.691406 35.09375 -14.078125 35.4375 -14.234375 C 35.78125 -14.390625 36.320312 -14.46875 37.0625 -14.46875 L 49.296875 -14.46875 C 49.859375 -14.46875 50.34375 -14.296875 50.75 -13.953125 C 51.15625 -13.617188 51.359375 -13.203125 51.359375 -12.703125 C 51.359375 -11.078125 50.4375 -9.175781 48.59375 -7 C 46.757812 -4.820312 44.082031 -2.953125 40.5625 -1.390625 C 37.050781 0.160156 32.898438 0.9375 28.109375 0.9375 Z M 35.484375 -29.3125 L 35.484375 -29.5 C 35.484375 -32.488281 34.828125 -34.804688 33.515625 -36.453125 C 32.210938 -38.109375 30.378906 -38.9375 28.015625 -38.9375 C 25.648438 -38.9375 23.828125 -38.109375 22.546875 -36.453125 C 21.273438 -34.804688 20.640625 -32.488281 20.640625 -29.5 L 20.640625 -29.3125 Z M 35.484375 -29.3125 "/></g></g></g><g fill="#097cba" fill-opacity="1"><g transform="translate(406.125514, 486.947335)"><g><path d="M 23.53125 0.9375 C 17.488281 0.9375 12.738281 -0.957031 9.28125 -4.75 C 5.832031 -8.550781 3.984375 -13.972656 3.734375 -21.015625 L 3.640625 -24.28125 L 3.734375 -27.640625 C 3.984375 -34.421875 5.847656 -39.753906 9.328125 -43.640625 C 12.816406 -47.535156 17.550781 -49.484375 23.53125 -49.484375 C 29.132812 -49.484375 33.644531 -47.679688 37.0625 -44.078125 L 37.0625 -63.96875 C 37.0625 -64.644531 37.296875 -65.203125 37.765625 -65.640625 C 38.234375 -66.078125 38.78125 -66.296875 39.40625 -66.296875 L 51.453125 -66.296875 C 52.140625 -66.296875 52.710938 -66.078125 53.171875 -65.640625 C 53.640625 -65.203125 53.875 -64.644531 53.875 -63.96875 L 53.875 -2.328125 C 53.875 -1.648438 53.640625 -1.09375 53.171875 -0.65625 C 52.710938 -0.21875 52.140625 0 51.453125 0 L 40.34375 0 C 39.71875 0 39.171875 -0.234375 38.703125 -0.703125 C 38.234375 -1.171875 38 -1.710938 38 -2.328125 L 38 -5.234375 C 34.644531 -1.117188 29.820312 0.9375 23.53125 0.9375 Z M 28.953125 -12.046875 C 31.628906 -12.046875 33.617188 -12.898438 34.921875 -14.609375 C 36.234375 -16.328125 36.945312 -18.492188 37.0625 -21.109375 C 37.1875 -22.847656 37.25 -24.03125 37.25 -24.65625 C 37.25 -25.332031 37.1875 -26.484375 37.0625 -28.109375 C 36.945312 -30.535156 36.21875 -32.539062 34.875 -34.125 C 33.539062 -35.71875 31.566406 -36.515625 28.953125 -36.515625 C 26.148438 -36.515625 24.140625 -35.6875 22.921875 -34.03125 C 21.710938 -32.382812 21.015625 -30.097656 20.828125 -27.171875 L 20.734375 -24.28125 L 20.828125 -21.390625 C 21.015625 -18.460938 21.710938 -16.171875 22.921875 -14.515625 C 24.140625 -12.867188 26.148438 -12.046875 28.953125 -12.046875 Z M 28.953125 -12.046875 "/></g></g></g><g fill="#097cba" fill-opacity="1"><g transform="translate(465.32514, 486.947335)"><g><path d="M 7.65625 -55.28125 C 6.96875 -55.28125 6.40625 -55.507812 5.96875 -55.96875 C 5.539062 -56.4375 5.328125 -57.015625 5.328125 -57.703125 L 5.328125 -66.390625 C 5.328125 -67.078125 5.554688 -67.648438 6.015625 -68.109375 C 6.484375 -68.578125 7.03125 -68.8125 7.65625 -68.8125 L 19.328125 -68.8125 C 20.015625 -68.8125 20.585938 -68.578125 21.046875 -68.109375 C 21.515625 -67.648438 21.75 -67.078125 21.75 -66.390625 L 21.75 -57.703125 C 21.75 -57.015625 21.515625 -56.4375 21.046875 -55.96875 C 20.585938 -55.507812 20.015625 -55.28125 19.328125 -55.28125 Z M 7.65625 0 C 7.03125 0 6.484375 -0.234375 6.015625 -0.703125 C 5.554688 -1.171875 5.328125 -1.710938 5.328125 -2.328125 L 5.328125 -46.21875 C 5.328125 -46.90625 5.554688 -47.46875 6.015625 -47.90625 C 6.484375 -48.34375 7.03125 -48.5625 7.65625 -48.5625 L 19.328125 -48.5625 C 20.015625 -48.5625 20.585938 -48.34375 21.046875 -47.90625 C 21.515625 -47.46875 21.75 -46.90625 21.75 -46.21875 L 21.75 -2.328125 C 21.75 -1.648438 21.515625 -1.09375 21.046875 -0.65625 C 20.585938 -0.21875 20.015625 0 19.328125 0 Z M 7.65625 0 "/></g></g></g><g fill="#097cba" fill-opacity="1"><g transform="translate(492.40383, 486.947335)"><g><path d="M 7.65625 0 C 7.03125 0 6.484375 -0.234375 6.015625 -0.703125 C 5.554688 -1.171875 5.328125 -1.710938 5.328125 -2.328125 L 5.328125 -46.125 C 5.328125 -46.8125 5.539062 -47.390625 5.96875 -47.859375 C 6.40625 -48.328125 6.96875 -48.5625 7.65625 -48.5625 L 19.046875 -48.5625 C 19.734375 -48.5625 20.304688 -48.328125 20.765625 -47.859375 C 21.234375 -47.390625 21.46875 -46.8125 21.46875 -46.125 L 21.46875 -42.578125 C 23.21875 -44.503906 25.257812 -45.984375 27.59375 -47.015625 C 29.925781 -48.046875 32.523438 -48.5625 35.390625 -48.5625 L 39.59375 -48.5625 C 40.28125 -48.5625 40.835938 -48.34375 41.265625 -47.90625 C 41.703125 -47.46875 41.921875 -46.90625 41.921875 -46.21875 L 41.921875 -36.046875 C 41.921875 -35.421875 41.703125 -34.875 41.265625 -34.40625 C 40.835938 -33.9375 40.28125 -33.703125 39.59375 -33.703125 L 30.15625 -33.703125 C 27.664062 -33.703125 25.75 -33.015625 24.40625 -31.640625 C 23.070312 -30.273438 22.40625 -28.347656 22.40625 -25.859375 L 22.40625 -2.328125 C 22.40625 -1.648438 22.171875 -1.09375 21.703125 -0.65625 C 21.242188 -0.21875 20.671875 0 19.984375 0 Z M 7.65625 0 "/></g></g></g><g fill="#097cba" fill-opacity="1"><g transform="translate(535.076112, 486.947335)"><g><path d="M 28.109375 0.9375 C 20.515625 0.9375 14.535156 -1.097656 10.171875 -5.171875 C 5.816406 -9.253906 3.578125 -15.1875 3.453125 -22.96875 L 3.453125 -25.859375 C 3.703125 -33.265625 6.003906 -39.050781 10.359375 -43.21875 C 14.722656 -47.394531 20.609375 -49.484375 28.015625 -49.484375 C 33.367188 -49.484375 37.894531 -48.410156 41.59375 -46.265625 C 45.300781 -44.117188 48.070312 -41.160156 49.90625 -37.390625 C 51.738281 -33.628906 52.65625 -29.351562 52.65625 -24.5625 L 52.65625 -22.21875 C 52.65625 -21.539062 52.421875 -20.96875 51.953125 -20.5 C 51.492188 -20.03125 50.921875 -19.796875 50.234375 -19.796875 L 20.640625 -19.796875 L 20.640625 -19.234375 C 20.703125 -16.429688 21.351562 -14.171875 22.59375 -12.453125 C 23.84375 -10.742188 25.617188 -9.890625 27.921875 -9.890625 C 29.410156 -9.890625 30.609375 -10.1875 31.515625 -10.78125 C 32.421875 -11.375 33.273438 -12.140625 34.078125 -13.078125 C 34.640625 -13.691406 35.09375 -14.078125 35.4375 -14.234375 C 35.78125 -14.390625 36.320312 -14.46875 37.0625 -14.46875 L 49.296875 -14.46875 C 49.859375 -14.46875 50.34375 -14.296875 50.75 -13.953125 C 51.15625 -13.617188 51.359375 -13.203125 51.359375 -12.703125 C 51.359375 -11.078125 50.4375 -9.175781 48.59375 -7 C 46.757812 -4.820312 44.082031 -2.953125 40.5625 -1.390625 C 37.050781 0.160156 32.898438 0.9375 28.109375 0.9375 Z M 35.484375 -29.3125 L 35.484375 -29.5 C 35.484375 -32.488281 34.828125 -34.804688 33.515625 -36.453125 C 32.210938 -38.109375 30.378906 -38.9375 28.015625 -38.9375 C 25.648438 -38.9375 23.828125 -38.109375 22.546875 -36.453125 C 21.273438 -34.804688 20.640625 -32.488281 20.640625 -29.5 L 20.640625 -29.3125 Z M 35.484375 -29.3125 "/></g></g></g><g fill="#097cba" fill-opacity="1"><g transform="translate(590.820848, 486.947335)"><g><path d="M 27.921875 0.9375 C 20.828125 0.9375 15.082031 -0.941406 10.6875 -4.703125 C 6.300781 -8.472656 3.953125 -13.722656 3.640625 -20.453125 L 3.546875 -24.1875 L 3.640625 -28.015625 C 3.890625 -34.734375 6.222656 -39.988281 10.640625 -43.78125 C 15.066406 -47.582031 20.828125 -49.484375 27.921875 -49.484375 C 33.335938 -49.484375 37.878906 -48.519531 41.546875 -46.59375 C 45.222656 -44.664062 47.960938 -42.378906 49.765625 -39.734375 C 51.578125 -37.085938 52.539062 -34.675781 52.65625 -32.5 C 52.71875 -31.8125 52.5 -31.234375 52 -30.765625 C 51.507812 -30.296875 50.921875 -30.0625 50.234375 -30.0625 L 37.71875 -30.0625 C 37.039062 -30.0625 36.515625 -30.21875 36.140625 -30.53125 C 35.765625 -30.84375 35.421875 -31.34375 35.109375 -32.03125 C 34.421875 -33.769531 33.53125 -35.039062 32.4375 -35.84375 C 31.351562 -36.65625 29.972656 -37.0625 28.296875 -37.0625 C 23.503906 -37.0625 21.015625 -33.890625 20.828125 -27.546875 L 20.734375 -24 L 20.828125 -20.921875 C 20.890625 -17.679688 21.539062 -15.296875 22.78125 -13.765625 C 24.03125 -12.242188 25.867188 -11.484375 28.296875 -11.484375 C 30.097656 -11.484375 31.507812 -11.867188 32.53125 -12.640625 C 33.5625 -13.421875 34.421875 -14.71875 35.109375 -16.53125 C 35.421875 -17.207031 35.765625 -17.703125 36.140625 -18.015625 C 36.515625 -18.328125 37.039062 -18.484375 37.71875 -18.484375 L 50.234375 -18.484375 C 50.859375 -18.484375 51.414062 -18.265625 51.90625 -17.828125 C 52.40625 -17.398438 52.65625 -16.875 52.65625 -16.25 C 52.65625 -14.320312 51.800781 -12.003906 50.09375 -9.296875 C 48.382812 -6.585938 45.660156 -4.203125 41.921875 -2.140625 C 38.191406 -0.0859375 33.523438 0.9375 27.921875 0.9375 Z M 27.921875 0.9375 "/></g></g></g><g fill="#097cba" fill-opacity="1"><g transform="translate(646.1921, 486.947335)"><g><path d="M 30.8125 0 C 17.613281 0 11.015625 -6.191406 11.015625 -18.578125 L 11.015625 -35.859375 L 3.640625 -35.859375 C 3.015625 -35.859375 2.46875 -36.085938 2 -36.546875 C 1.539062 -37.015625 1.3125 -37.5625 1.3125 -38.1875 L 1.3125 -46.21875 C 1.3125 -46.90625 1.539062 -47.46875 2 -47.90625 C 2.46875 -48.34375 3.015625 -48.5625 3.640625 -48.5625 L 11.015625 -48.5625 L 11.015625 -63.96875 C 11.015625 -64.644531 11.25 -65.203125 11.71875 -65.640625 C 12.1875 -66.078125 12.734375 -66.296875 13.359375 -66.296875 L 24.84375 -66.296875 C 25.519531 -66.296875 26.078125 -66.078125 26.515625 -65.640625 C 26.953125 -65.203125 27.171875 -64.644531 27.171875 -63.96875 L 27.171875 -48.5625 L 38.84375 -48.5625 C 39.53125 -48.5625 40.101562 -48.34375 40.5625 -47.90625 C 41.03125 -47.46875 41.265625 -46.90625 41.265625 -46.21875 L 41.265625 -38.1875 C 41.265625 -37.5 41.03125 -36.9375 40.5625 -36.5 C 40.101562 -36.070312 39.53125 -35.859375 38.84375 -35.859375 L 27.171875 -35.859375 L 27.171875 -19.984375 C 27.171875 -17.804688 27.570312 -16.15625 28.375 -15.03125 C 29.1875 -13.914062 30.5 -13.359375 32.3125 -13.359375 L 39.6875 -13.359375 C 40.375 -13.359375 40.929688 -13.125 41.359375 -12.65625 C 41.796875 -12.1875 42.015625 -11.609375 42.015625 -10.921875 L 42.015625 -2.328125 C 42.015625 -1.710938 41.796875 -1.171875 41.359375 -0.703125 C 40.929688 -0.234375 40.375 0 39.6875 0 Z M 30.8125 0 "/></g></g></g><g fill="#097cba" fill-opacity="1"><g transform="translate(690.451738, 486.947335)"><g><path d="M 25.671875 0.9375 C 20.566406 0.9375 16.300781 0.222656 12.875 -1.203125 C 9.457031 -2.640625 6.921875 -4.351562 5.265625 -6.34375 C 3.617188 -8.34375 2.796875 -10.148438 2.796875 -11.765625 C 2.796875 -12.390625 3.03125 -12.898438 3.5 -13.296875 C 3.96875 -13.703125 4.484375 -13.90625 5.046875 -13.90625 L 16.34375 -13.90625 C 16.71875 -13.90625 17.03125 -13.785156 17.28125 -13.546875 C 18.332031 -12.859375 18.921875 -12.453125 19.046875 -12.328125 C 20.234375 -11.453125 21.335938 -10.78125 22.359375 -10.3125 C 23.390625 -9.851562 24.617188 -9.625 26.046875 -9.625 C 27.734375 -9.625 29.117188 -9.945312 30.203125 -10.59375 C 31.296875 -11.25 31.84375 -12.171875 31.84375 -13.359375 C 31.84375 -14.347656 31.546875 -15.15625 30.953125 -15.78125 C 30.359375 -16.40625 29.238281 -17.007812 27.59375 -17.59375 C 25.945312 -18.1875 23.441406 -18.796875 20.078125 -19.421875 C 9.304688 -21.597656 3.921875 -26.578125 3.921875 -34.359375 C 3.921875 -36.910156 4.742188 -39.351562 6.390625 -41.6875 C 8.046875 -44.019531 10.472656 -45.898438 13.671875 -47.328125 C 16.878906 -48.765625 20.726562 -49.484375 25.21875 -49.484375 C 29.757812 -49.484375 33.691406 -48.78125 37.015625 -47.375 C 40.347656 -45.976562 42.882812 -44.300781 44.625 -42.34375 C 46.375 -40.382812 47.25 -38.59375 47.25 -36.96875 C 47.25 -36.414062 47.046875 -35.921875 46.640625 -35.484375 C 46.234375 -35.046875 45.75 -34.828125 45.1875 -34.828125 L 34.921875 -34.828125 C 34.359375 -34.828125 33.921875 -34.953125 33.609375 -35.203125 C 32.867188 -35.578125 32.125 -36.046875 31.375 -36.609375 C 30.25 -37.347656 29.265625 -37.921875 28.421875 -38.328125 C 27.585938 -38.734375 26.519531 -38.9375 25.21875 -38.9375 C 23.65625 -38.9375 22.4375 -38.59375 21.5625 -37.90625 C 20.695312 -37.226562 20.265625 -36.359375 20.265625 -35.296875 C 20.265625 -34.359375 20.523438 -33.59375 21.046875 -33 C 21.578125 -32.414062 22.664062 -31.84375 24.3125 -31.28125 C 25.96875 -30.71875 28.476562 -30.125 31.84375 -29.5 C 37.9375 -28.445312 42.367188 -26.566406 45.140625 -23.859375 C 47.910156 -21.148438 49.296875 -17.988281 49.296875 -14.375 C 49.296875 -9.707031 47.226562 -5.988281 43.09375 -3.21875 C 38.957031 -0.445312 33.148438 0.9375 25.671875 0.9375 Z M 25.671875 0.9375 "/></g></g></g></svg>