<?xml version="1.0" encoding="UTF-8" standalone="no"?><!DOCTYPE svg PUBLIC "-//W3C//DTD SVG 1.1//EN" "http://www.w3.org/Graphics/SVG/1.1/DTD/svg11.dtd"><svg width="100%" height="100%" viewBox="0 0 1920 1080" version="1.1" xmlns="http://www.w3.org/2000/svg" xmlns:xlink="http://www.w3.org/1999/xlink" xml:space="preserve" xmlns:serif="http://www.serif.com/" style="fill-rule:evenodd;clip-rule:evenodd;stroke-linecap:round;stroke-linejoin:round;"><rect id="sphinx-reredirects" x="0" y="0" width="1920" height="1080" style="fill:#097cba;"/><path d="M1806.56,231.138c-0,-39.658 -32.198,-71.855 -71.856,-71.855l-1508.57,-0c-39.658,-0 -71.855,32.197 -71.855,71.855l-0,594.892c-0,39.658 32.197,71.855 71.855,71.855l228.773,0l107.991,126.844l106.418,-126.844l1065.38,0c39.658,0 71.856,-32.197 71.856,-71.855l-0,-594.892Z" style="fill:#fff;"/><g><path d="M372.77,253.239l20.053,-8.95l-0,25.268l-20.053,7.961l0,-24.279Zm-6.383,0l-20.052,-8.95l0,25.268l20.052,7.962l0,-24.28Z" style="fill:none;fill-rule:nonzero;stroke:#0c7cba;stroke-width:4.38px;"/><path d="M349.35,238.482l20.257,8.811l20.051,-8.811" style="fill:none;fill-rule:nonzero;stroke:#0c7cba;stroke-width:4.38px;"/><g><path d="M250.897,271.16c9.458,-0 15.542,-6.262 15.542,-15.809c-0,-8.704 -5.24,-15.72 -15.542,-15.72l-11.457,0l-0,31.529l11.457,-0Zm9.369,-15.809c0,5.951 -3.33,10.436 -9.369,10.436l-5.329,-0l-0,-20.783l5.329,0c5.95,0 9.369,4.263 9.369,10.347Zm19.577,16.253c7.593,-0 12.167,-5.64 12.167,-12.034c0,-6.484 -4.618,-12.079 -12.167,-12.079c-7.55,0 -12.212,5.595 -12.212,12.079c-0,6.394 4.618,12.034 12.212,12.034l0,-0Zm-6.084,-12.034c0,-4.041 2.665,-7.017 6.084,-7.017c3.419,0 6.084,2.931 6.084,6.972c-0,4.086 -2.665,7.016 -6.084,7.016c-3.419,0 -6.084,-2.886 -6.084,-6.971l0,-0Zm19.076,-0.045c-0,6.439 4.751,12.079 12.3,12.079c5.107,-0 8.97,-2.531 10.569,-6.04l-5.817,-1.776c-0.711,1.554 -2.709,2.753 -4.841,2.753c-3.33,0 -6.083,-2.93 -6.083,-7.016c-0,-4.13 2.664,-6.971 6.083,-6.971c1.999,-0 3.775,0.976 4.752,2.664l5.817,-1.776c-1.776,-3.553 -5.462,-5.951 -10.524,-5.951c-7.593,0 -12.256,5.551 -12.256,12.034l-0,0Zm31.908,12.079c3.952,-0 7.283,-1.599 9.414,-4.796l0.133,1.91c0.267,1.687 1.51,2.753 3.642,2.753c0.71,-0 1.643,-0.089 2.886,-0.311l0,-5.063c-1.199,-0.044 -1.599,-0.533 -1.599,-1.776l0,-16.43l-5.95,-0l0,14.432c-1.376,2.842 -3.685,4.218 -6.039,4.218c-2.531,0 -3.863,-1.82 -3.863,-5.373l-0,-13.277l-5.951,-0l0,14.565c0,5.995 2.531,9.148 7.327,9.148l-0,-0Z" style="fill:#0c7cba;fill-rule:nonzero;"/></g><g><path d="M434.488,256.284c0,-4.485 -1.243,-9.148 -6.971,-9.148c-3.686,-0 -6.706,1.732 -8.571,4.929c-0.621,-2.753 -2.709,-4.929 -6.572,-4.929c-3.819,-0 -6.927,1.687 -8.659,4.707l-0,-4.307l-5.373,-0l-0,23.269l5.95,-0l0,-13.589c0.888,-2.886 3.242,-4.84 5.551,-4.84c2.22,-0 3.597,1.643 3.597,5.373l-0,13.055l5.95,0l0,-13.543c0.888,-2.887 3.198,-4.885 5.507,-4.885c2.264,0 3.641,1.687 3.641,5.373l-0,13.055l5.95,0l0,-14.52Zm9.849,14.965c3.375,-0 6.439,-1.466 8.526,-4.175l0.133,1.288c0.311,1.643 1.466,2.709 3.686,2.753c0.711,0 1.732,-0.088 2.842,-0.311l0,-5.062c-1.154,-0.044 -1.599,-0.533 -1.599,-1.776l0,-7.238c0,-6.173 -3.907,-9.592 -10.568,-9.592c-3.464,-0 -6.661,0.977 -9.681,2.975l1.821,3.775c2.487,-1.732 4.796,-2.62 7.283,-2.62c3.419,-0 5.195,1.732 5.195,4.796l0,1.332c-1.51,-0.666 -3.597,-1.022 -5.684,-1.022c-5.817,0 -9.903,3.064 -9.903,7.505c0,4.219 3.42,7.372 7.949,7.372Zm1.688,-4.352c-2.265,-0 -3.997,-1.51 -3.997,-3.508c0,-2.132 2.176,-3.686 5.24,-3.686c1.51,0 3.286,0.355 4.707,0.888l0,2.664c0,0.578 -0.355,1.199 -0.977,1.688c-1.021,1.199 -2.975,1.954 -4.973,1.954Zm28.263,-1.999c-0.711,0.311 -1.999,0.844 -3.242,0.844c-1.244,0 -2.265,-0.622 -2.265,-2.264l0,-11.369l4.929,0l0,-4.573l-4.929,-0l0,-7.55l-5.95,0l-0,7.55l-3.02,-0l0,4.573l3.02,0l-0,13.367c-0,4.13 2.753,5.728 6.039,5.728c2.531,0 5.018,-0.888 6.617,-1.598l-1.199,-4.708Zm15.142,0c-0.71,0.311 -1.998,0.844 -3.241,0.844c-1.244,0 -2.265,-0.622 -2.265,-2.264l-0,-11.369l4.929,0l0,-4.573l-4.929,-0l-0,-7.55l-5.951,0l0,7.55l-3.019,-0l-0,4.573l3.019,0l0,13.367c0,4.13 2.754,5.728 6.04,5.728c2.531,0 5.018,-0.888 6.616,-1.598l-1.199,-4.708Z" style="fill:#0c7cba;fill-rule:nonzero;"/></g></g><g transform="matrix(1.2618,0,0,1.2618,-110.683,-20.7091)"><g transform="matrix(96,0,0,96,265.868,433.181)"><path d="M0.273,0.01c-0.043,0 -0.08,-0.005 -0.111,-0.015c-0.03,-0.009 -0.055,-0.021 -0.074,-0.035c-0.019,-0.014 -0.033,-0.029 -0.042,-0.044c-0.009,-0.014 -0.014,-0.028 -0.015,-0.039c-0.001,-0.007 0.002,-0.013 0.007,-0.018c0.005,-0.005 0.011,-0.007 0.017,-0.007l0.114,0c0.002,0 0.004,0 0.005,0.001c0.002,0.001 0.004,0.002 0.006,0.004c0.009,0.005 0.017,0.011 0.026,0.018c0.009,0.006 0.019,0.013 0.03,0.018c0.011,0.005 0.025,0.008 0.041,0.008c0.019,-0 0.034,-0.004 0.047,-0.011c0.013,-0.008 0.019,-0.019 0.019,-0.033c0,-0.011 -0.003,-0.019 -0.009,-0.026c-0.006,-0.007 -0.018,-0.014 -0.037,-0.021c-0.018,-0.007 -0.045,-0.013 -0.082,-0.02c-0.035,-0.008 -0.065,-0.019 -0.091,-0.032c-0.026,-0.013 -0.046,-0.03 -0.06,-0.05c-0.014,-0.022 -0.021,-0.047 -0.021,-0.077c-0,-0.027 0.009,-0.052 0.026,-0.077c0.017,-0.025 0.043,-0.045 0.076,-0.061c0.033,-0.015 0.075,-0.023 0.124,-0.023c0.038,0 0.071,0.005 0.1,0.014c0.029,0.009 0.053,0.02 0.072,0.034c0.019,0.014 0.034,0.028 0.044,0.043c0.01,0.015 0.015,0.028 0.016,0.04c0.001,0.007 -0.001,0.013 -0.006,0.018c-0.005,0.005 -0.01,0.007 -0.016,0.007l-0.104,0c-0.003,0 -0.005,-0.001 -0.008,-0.002c-0.003,-0.001 -0.005,-0.002 -0.007,-0.003c-0.008,-0.004 -0.016,-0.009 -0.024,-0.016c-0.008,-0.007 -0.017,-0.013 -0.028,-0.018c-0.011,-0.005 -0.024,-0.008 -0.04,-0.008c-0.018,0 -0.032,0.004 -0.042,0.012c-0.01,0.008 -0.015,0.018 -0.015,0.031c0,0.009 0.003,0.017 0.009,0.024c0.005,0.007 0.017,0.014 0.035,0.02c0.017,0.006 0.045,0.013 0.082,0.02c0.046,0.007 0.083,0.019 0.11,0.035c0.027,0.017 0.047,0.036 0.059,0.057c0.011,0.022 0.017,0.045 0.017,0.069c0,0.032 -0.01,0.06 -0.029,0.085c-0.019,0.025 -0.047,0.044 -0.084,0.057c-0.037,0.014 -0.083,0.021 -0.137,0.021Z" style="fill:#097cba;fill-rule:nonzero;"/></g><g transform="matrix(96,0,0,96,318.956,433.181)"><path d="M0.084,0.19c-0.007,0 -0.013,-0.003 -0.018,-0.008c-0.005,-0.005 -0.007,-0.01 -0.007,-0.017l0,-0.66c0,-0.007 0.002,-0.013 0.007,-0.018c0.005,-0.005 0.011,-0.007 0.018,-0.007l0.113,0c0.007,0 0.013,0.002 0.017,0.007c0.005,0.005 0.008,0.011 0.008,0.018l-0,0.036c0.016,-0.02 0.037,-0.037 0.062,-0.051c0.025,-0.013 0.056,-0.02 0.093,-0.02c0.033,0 0.063,0.005 0.088,0.016c0.025,0.01 0.047,0.025 0.066,0.045c0.018,0.02 0.032,0.044 0.042,0.073c0.01,0.029 0.016,0.062 0.017,0.099c0.001,0.013 0.001,0.026 0.001,0.037c0,0.011 -0,0.024 -0.001,0.037c-0.001,0.036 -0.007,0.068 -0.017,0.097c-0.01,0.029 -0.024,0.053 -0.042,0.073c-0.018,0.02 -0.04,0.036 -0.065,0.047c-0.026,0.011 -0.056,0.016 -0.089,0.016c-0.033,0 -0.061,-0.006 -0.085,-0.017c-0.025,-0.012 -0.045,-0.029 -0.061,-0.05l0,0.222c0,0.007 -0.002,0.013 -0.007,0.018c-0.005,0.005 -0.011,0.007 -0.018,0.007l-0.122,0Zm0.239,-0.314c0.023,0 0.04,-0.005 0.053,-0.014c0.013,-0.009 0.022,-0.022 0.028,-0.038c0.005,-0.016 0.009,-0.034 0.01,-0.053c0.001,-0.021 0.001,-0.041 0,-0.062c-0.001,-0.019 -0.005,-0.037 -0.01,-0.053c-0.006,-0.016 -0.015,-0.029 -0.028,-0.038c-0.013,-0.009 -0.03,-0.014 -0.053,-0.014c-0.021,-0 -0.039,0.005 -0.052,0.015c-0.013,0.009 -0.023,0.022 -0.029,0.037c-0.006,0.015 -0.01,0.032 -0.011,0.05c-0.001,0.013 -0.001,0.025 -0.001,0.037c0,0.012 0,0.025 0.001,0.038c0.001,0.017 0.004,0.032 0.011,0.047c0.007,0.014 0.017,0.026 0.03,0.035c0.013,0.009 0.03,0.013 0.051,0.013Z" style="fill:#097cba;fill-rule:nonzero;"/></g><g transform="matrix(96,0,0,96,379.532,433.181)"><path d="M0.084,-0c-0.007,-0 -0.013,-0.003 -0.018,-0.008c-0.005,-0.004 -0.007,-0.01 -0.007,-0.017l0,-0.66c0,-0.007 0.002,-0.013 0.007,-0.018c0.005,-0.005 0.011,-0.007 0.018,-0.007l0.128,0c0.007,0 0.013,0.002 0.018,0.007c0.005,0.005 0.007,0.011 0.007,0.018l-0,0.223c0.018,-0.021 0.04,-0.037 0.066,-0.049c0.027,-0.013 0.057,-0.019 0.092,-0.019c0.039,0 0.073,0.009 0.103,0.026c0.031,0.017 0.055,0.043 0.072,0.076c0.017,0.033 0.026,0.075 0.026,0.124l-0,0.279c-0,0.007 -0.002,0.013 -0.007,0.018c-0.005,0.005 -0.011,0.007 -0.018,0.007l-0.129,0c-0.007,0 -0.013,-0.002 -0.018,-0.007c-0.005,-0.005 -0.007,-0.011 -0.007,-0.018l-0,-0.273c-0,-0.031 -0.008,-0.055 -0.023,-0.072c-0.015,-0.017 -0.036,-0.026 -0.065,-0.026c-0.028,0 -0.05,0.009 -0.067,0.026c-0.017,0.017 -0.025,0.041 -0.025,0.072l0,0.273c0,0.007 -0.002,0.013 -0.007,0.018c-0.005,0.005 -0.011,0.007 -0.018,0.007l-0.128,0Z" style="fill:#097cba;fill-rule:nonzero;"/></g><g transform="matrix(96,0,0,96,441.932,433.181)"><path d="M0.084,-0c-0.007,-0 -0.013,-0.003 -0.018,-0.008c-0.005,-0.004 -0.007,-0.01 -0.007,-0.017l0,-0.47c0,-0.007 0.002,-0.013 0.007,-0.018c0.005,-0.005 0.011,-0.007 0.018,-0.007l0.118,0c0.007,0 0.013,0.002 0.018,0.007c0.005,0.005 0.007,0.011 0.007,0.018l-0,0.47c-0,0.007 -0.002,0.012 -0.007,0.017c-0.005,0.005 -0.011,0.008 -0.018,0.008l-0.118,-0Zm-0.001,-0.595c-0.007,0 -0.013,-0.002 -0.018,-0.007c-0.005,-0.005 -0.007,-0.011 -0.007,-0.018l0,-0.09c0,-0.007 0.002,-0.013 0.007,-0.018c0.005,-0.004 0.011,-0.007 0.018,-0.007l0.12,0c0.007,0 0.012,0.003 0.017,0.007c0.005,0.005 0.008,0.011 0.008,0.018l-0,0.09c-0,0.007 -0.003,0.013 -0.008,0.018c-0.005,0.005 -0.01,0.007 -0.017,0.007l-0.12,0Z" style="fill:#097cba;fill-rule:nonzero;"/></g><g transform="matrix(96,0,0,96,469.388,433.181)"><path d="M0.084,-0c-0.007,-0 -0.013,-0.003 -0.018,-0.008c-0.005,-0.004 -0.007,-0.01 -0.007,-0.017l0,-0.47c0,-0.007 0.002,-0.013 0.007,-0.018c0.005,-0.005 0.011,-0.007 0.018,-0.007l0.115,0c0.007,0 0.013,0.002 0.018,0.007c0.005,0.005 0.008,0.011 0.008,0.018l-0,0.038c0.017,-0.021 0.039,-0.038 0.067,-0.052c0.028,-0.014 0.061,-0.021 0.099,-0.021c0.039,0 0.073,0.009 0.102,0.026c0.03,0.017 0.053,0.043 0.071,0.076c0.016,0.033 0.025,0.075 0.025,0.124l-0,0.279c-0,0.007 -0.002,0.012 -0.007,0.017c-0.005,0.005 -0.011,0.008 -0.018,0.008l-0.126,-0c-0.007,-0 -0.013,-0.003 -0.018,-0.008c-0.005,-0.005 -0.007,-0.01 -0.007,-0.017l0,-0.273c0,-0.031 -0.008,-0.055 -0.023,-0.073c-0.015,-0.017 -0.037,-0.025 -0.066,-0.025c-0.027,-0 -0.049,0.009 -0.066,0.026c-0.016,0.017 -0.024,0.041 -0.024,0.072l0,0.273c0,0.007 -0.003,0.012 -0.008,0.017c-0.005,0.005 -0.01,0.008 -0.017,0.008l-0.125,-0Z" style="fill:#097cba;fill-rule:nonzero;"/></g><g transform="matrix(96,0,0,96,531.116,433.181)"><path d="M0.038,-0c-0.006,-0 -0.011,-0.002 -0.016,-0.007c-0.004,-0.004 -0.006,-0.009 -0.006,-0.016c0,-0.001 0,-0.003 0.001,-0.007c0.001,-0.003 0.002,-0.005 0.004,-0.008l0.167,-0.229l-0.152,-0.215c-0.002,-0.003 -0.004,-0.005 -0.005,-0.008c-0.001,-0.003 -0.001,-0.005 -0.001,-0.008c-0,-0.006 0.002,-0.011 0.007,-0.015c0.005,-0.005 0.01,-0.007 0.016,-0.007l0.122,0c0.009,0 0.015,0.002 0.02,0.006c0.004,0.004 0.007,0.008 0.009,0.011l0.093,0.128l0.092,-0.127c0.003,-0.003 0.006,-0.007 0.011,-0.011c0.004,-0.005 0.01,-0.007 0.019,-0.007l0.117,0c0.006,0 0.011,0.002 0.015,0.007c0.005,0.004 0.007,0.009 0.007,0.015c0,0.003 -0,0.005 -0.001,0.008c-0.001,0.003 -0.002,0.005 -0.004,0.008l-0.156,0.215l0.17,0.229c0.002,0.003 0.003,0.005 0.004,0.008c0.001,0.003 0.001,0.005 0.001,0.007c0,0.007 -0.002,0.012 -0.007,0.017c-0.004,0.004 -0.009,0.006 -0.015,0.006l-0.128,0c-0.008,0 -0.014,-0.002 -0.018,-0.005c-0.004,-0.004 -0.007,-0.008 -0.01,-0.011l-0.101,-0.137l-0.102,0.137c-0.003,0.003 -0.006,0.006 -0.01,0.01c-0.004,0.004 -0.01,0.006 -0.018,0.006l-0.125,0Z" style="fill:#097cba;fill-rule:nonzero;"/></g><g transform="matrix(96,0,0,96,585.26,433.181)"><path d="M0.082,-0.228c-0.007,0 -0.013,-0.002 -0.018,-0.007c-0.005,-0.005 -0.007,-0.011 -0.007,-0.018l0,-0.094c0,-0.007 0.002,-0.013 0.007,-0.018c0.005,-0.005 0.011,-0.007 0.018,-0.007l0.313,0c0.007,-0 0.014,0.002 0.019,0.007c0.005,0.005 0.007,0.011 0.007,0.018l-0,0.094c-0,0.007 -0.003,0.013 -0.008,0.018c-0.005,0.005 -0.011,0.007 -0.018,0.007l-0.313,-0Z" style="fill:#097cba;fill-rule:nonzero;"/></g><g transform="matrix(96,0,0,96,265.868,529.181)"><path d="M0.084,-0c-0.007,-0 -0.013,-0.003 -0.018,-0.008c-0.005,-0.004 -0.007,-0.01 -0.007,-0.017l0,-0.47c0,-0.007 0.002,-0.012 0.007,-0.017c0.005,-0.005 0.011,-0.008 0.018,-0.008l0.115,0c0.007,0 0.013,0.003 0.018,0.008c0.005,0.005 0.008,0.01 0.008,0.017l-0,0.04c0.017,-0.021 0.038,-0.037 0.063,-0.048c0.025,-0.011 0.054,-0.017 0.085,-0.017l0.044,0c0.007,0 0.013,0.002 0.018,0.007c0.005,0.005 0.007,0.011 0.007,0.018l-0,0.103c-0,0.007 -0.002,0.013 -0.007,0.018c-0.005,0.005 -0.011,0.007 -0.018,0.007l-0.097,0c-0.027,0 -0.049,0.008 -0.064,0.022c-0.015,0.015 -0.022,0.037 -0.022,0.064l-0,0.256c-0,0.007 -0.003,0.012 -0.008,0.017c-0.005,0.005 -0.011,0.008 -0.018,0.008l-0.124,-0Z" style="fill:#097cba;fill-rule:nonzero;"/></g><g transform="matrix(96,0,0,96,309.068,529.181)"><path d="M0.299,0.01c-0.079,0 -0.141,-0.021 -0.188,-0.064c-0.047,-0.043 -0.071,-0.106 -0.073,-0.19l0,-0.035c0.002,-0.053 0.014,-0.098 0.036,-0.136c0.021,-0.037 0.051,-0.066 0.09,-0.086c0.038,-0.019 0.083,-0.029 0.134,-0.029c0.059,0 0.107,0.012 0.146,0.035c0.038,0.023 0.067,0.055 0.086,0.095c0.019,0.04 0.029,0.086 0.029,0.137l0,0.024c0,0.007 -0.002,0.013 -0.007,0.018c-0.005,0.005 -0.011,0.007 -0.018,0.007l-0.32,0l0,0.007c0.001,0.019 0.004,0.037 0.011,0.053c0.006,0.016 0.015,0.029 0.028,0.038c0.012,0.009 0.027,0.014 0.045,0.014c0.013,0 0.025,-0.002 0.034,-0.006c0.009,-0.005 0.016,-0.01 0.022,-0.015c0.006,-0.006 0.011,-0.011 0.014,-0.015c0.006,-0.007 0.011,-0.012 0.015,-0.013c0.003,-0.002 0.009,-0.003 0.017,-0.003l0.124,0c0.007,0 0.012,0.002 0.016,0.006c0.005,0.004 0.007,0.009 0.006,0.016c-0.001,0.011 -0.006,0.025 -0.017,0.041c-0.011,0.016 -0.026,0.032 -0.047,0.047c-0.02,0.016 -0.045,0.029 -0.076,0.039c-0.031,0.01 -0.066,0.015 -0.107,0.015Zm-0.085,-0.323l0.169,0l0,-0.002c0,-0.022 -0.003,-0.041 -0.01,-0.056c-0.006,-0.016 -0.016,-0.028 -0.028,-0.037c-0.013,-0.009 -0.029,-0.013 -0.047,-0.013c-0.017,0 -0.032,0.004 -0.045,0.013c-0.013,0.009 -0.022,0.021 -0.029,0.036c-0.007,0.016 -0.01,0.035 -0.01,0.057l0,0.002Z" style="fill:#097cba;fill-rule:nonzero;"/></g><g transform="matrix(96,0,0,96,366.092,529.181)"><path d="M0.084,-0c-0.007,-0 -0.013,-0.003 -0.018,-0.008c-0.005,-0.004 -0.007,-0.01 -0.007,-0.017l0,-0.47c0,-0.007 0.002,-0.012 0.007,-0.017c0.005,-0.005 0.011,-0.008 0.018,-0.008l0.115,0c0.007,0 0.013,0.003 0.018,0.008c0.005,0.005 0.008,0.01 0.008,0.017l-0,0.04c0.017,-0.021 0.038,-0.037 0.063,-0.048c0.025,-0.011 0.054,-0.017 0.085,-0.017l0.044,0c0.007,0 0.013,0.002 0.018,0.007c0.005,0.005 0.007,0.011 0.007,0.018l-0,0.103c-0,0.007 -0.002,0.013 -0.007,0.018c-0.005,0.005 -0.011,0.007 -0.018,0.007l-0.097,0c-0.027,0 -0.049,0.008 -0.064,0.022c-0.015,0.015 -0.022,0.037 -0.022,0.064l-0,0.256c-0,0.007 -0.003,0.012 -0.008,0.017c-0.005,0.005 -0.011,0.008 -0.018,0.008l-0.124,-0Z" style="fill:#097cba;fill-rule:nonzero;"/></g><g transform="matrix(96,0,0,96,409.292,529.181)"><path d="M0.299,0.01c-0.079,0 -0.141,-0.021 -0.188,-0.064c-0.047,-0.043 -0.071,-0.106 -0.073,-0.19l0,-0.035c0.002,-0.053 0.014,-0.098 0.036,-0.136c0.021,-0.037 0.051,-0.066 0.09,-0.086c0.038,-0.019 0.083,-0.029 0.134,-0.029c0.059,0 0.107,0.012 0.146,0.035c0.038,0.023 0.067,0.055 0.086,0.095c0.019,0.04 0.029,0.086 0.029,0.137l0,0.024c0,0.007 -0.002,0.013 -0.007,0.018c-0.005,0.005 -0.011,0.007 -0.018,0.007l-0.32,0l0,0.007c0.001,0.019 0.004,0.037 0.011,0.053c0.006,0.016 0.015,0.029 0.028,0.038c0.012,0.009 0.027,0.014 0.045,0.014c0.013,0 0.025,-0.002 0.034,-0.006c0.009,-0.005 0.016,-0.01 0.022,-0.015c0.006,-0.006 0.011,-0.011 0.014,-0.015c0.006,-0.007 0.011,-0.012 0.015,-0.013c0.003,-0.002 0.009,-0.003 0.017,-0.003l0.124,0c0.007,0 0.012,0.002 0.016,0.006c0.005,0.004 0.007,0.009 0.006,0.016c-0.001,0.011 -0.006,0.025 -0.017,0.041c-0.011,0.016 -0.026,0.032 -0.047,0.047c-0.02,0.016 -0.045,0.029 -0.076,0.039c-0.031,0.01 -0.066,0.015 -0.107,0.015Zm-0.085,-0.323l0.169,0l0,-0.002c0,-0.022 -0.003,-0.041 -0.01,-0.056c-0.006,-0.016 -0.016,-0.028 -0.028,-0.037c-0.013,-0.009 -0.029,-0.013 -0.047,-0.013c-0.017,0 -0.032,0.004 -0.045,0.013c-0.013,0.009 -0.022,0.021 -0.029,0.036c-0.007,0.016 -0.01,0.035 -0.01,0.057l0,0.002Z" style="fill:#097cba;fill-rule:nonzero;"/></g><g transform="matrix(96,0,0,96,466.316,529.181)"><path d="M0.253,0.01c-0.032,0 -0.061,-0.005 -0.086,-0.016c-0.026,-0.01 -0.048,-0.025 -0.066,-0.046c-0.019,-0.02 -0.033,-0.044 -0.043,-0.074c-0.01,-0.028 -0.016,-0.062 -0.017,-0.099c-0.001,-0.013 -0.001,-0.025 -0.001,-0.036c0,-0.01 0,-0.022 0.001,-0.035c0.001,-0.035 0.007,-0.067 0.017,-0.096c0.01,-0.029 0.024,-0.054 0.042,-0.075c0.018,-0.02 0.04,-0.035 0.066,-0.046c0.026,-0.012 0.055,-0.017 0.087,-0.017c0.033,0 0.062,0.005 0.086,0.017c0.024,0.011 0.044,0.025 0.061,0.042l0,-0.214c0,-0.007 0.002,-0.013 0.007,-0.018c0.005,-0.005 0.011,-0.007 0.018,-0.007l0.122,0c0.007,0 0.012,0.002 0.017,0.007c0.005,0.005 0.008,0.011 0.008,0.018l0,0.66c0,0.007 -0.003,0.013 -0.008,0.018c-0.005,0.005 -0.01,0.007 -0.017,0.007l-0.113,0c-0.007,0 -0.013,-0.002 -0.018,-0.007c-0.005,-0.005 -0.007,-0.011 -0.007,-0.018l0,-0.032c-0.016,0.019 -0.037,0.035 -0.062,0.048c-0.025,0.013 -0.057,0.019 -0.094,0.019Zm0.055,-0.134c0.022,0 0.039,-0.005 0.052,-0.014c0.014,-0.01 0.023,-0.023 0.03,-0.038c0.006,-0.015 0.009,-0.032 0.01,-0.05c0.001,-0.013 0.001,-0.026 0.001,-0.038c0,-0.012 -0,-0.024 -0.001,-0.037c-0.001,-0.017 -0.004,-0.032 -0.011,-0.047c-0.007,-0.014 -0.017,-0.026 -0.03,-0.035c-0.013,-0.009 -0.03,-0.013 -0.051,-0.013c-0.022,-0 -0.039,0.005 -0.052,0.014c-0.013,0.009 -0.023,0.022 -0.028,0.038c-0.006,0.016 -0.01,0.034 -0.011,0.053c-0.002,0.021 -0.002,0.041 0,0.062c0.001,0.019 0.005,0.037 0.011,0.053c0.005,0.016 0.015,0.029 0.027,0.038c0.014,0.009 0.031,0.014 0.053,0.014Z" style="fill:#097cba;fill-rule:nonzero;"/></g><g transform="matrix(96,0,0,96,526.892,529.181)"><path d="M0.084,-0c-0.007,-0 -0.013,-0.003 -0.018,-0.008c-0.005,-0.004 -0.007,-0.01 -0.007,-0.017l0,-0.47c0,-0.007 0.002,-0.013 0.007,-0.018c0.005,-0.005 0.011,-0.007 0.018,-0.007l0.118,0c0.007,0 0.013,0.002 0.018,0.007c0.005,0.005 0.007,0.011 0.007,0.018l-0,0.47c-0,0.007 -0.002,0.012 -0.007,0.017c-0.005,0.005 -0.011,0.008 -0.018,0.008l-0.118,-0Zm-0.001,-0.595c-0.007,0 -0.013,-0.002 -0.018,-0.007c-0.005,-0.005 -0.007,-0.011 -0.007,-0.018l0,-0.09c0,-0.007 0.002,-0.013 0.007,-0.018c0.005,-0.004 0.011,-0.007 0.018,-0.007l0.12,0c0.007,0 0.012,0.003 0.017,0.007c0.005,0.005 0.008,0.011 0.008,0.018l-0,0.09c-0,0.007 -0.003,0.013 -0.008,0.018c-0.005,0.005 -0.01,0.007 -0.017,0.007l-0.12,0Z" style="fill:#097cba;fill-rule:nonzero;"/></g><g transform="matrix(96,0,0,96,554.348,529.181)"><path d="M0.084,-0c-0.007,-0 -0.013,-0.003 -0.018,-0.008c-0.005,-0.004 -0.007,-0.01 -0.007,-0.017l0,-0.47c0,-0.007 0.002,-0.012 0.007,-0.017c0.005,-0.005 0.011,-0.008 0.018,-0.008l0.115,0c0.007,0 0.013,0.003 0.018,0.008c0.005,0.005 0.008,0.01 0.008,0.017l-0,0.04c0.017,-0.021 0.038,-0.037 0.063,-0.048c0.025,-0.011 0.054,-0.017 0.085,-0.017l0.044,0c0.007,0 0.013,0.002 0.018,0.007c0.005,0.005 0.007,0.011 0.007,0.018l-0,0.103c-0,0.007 -0.002,0.013 -0.007,0.018c-0.005,0.005 -0.011,0.007 -0.018,0.007l-0.097,0c-0.027,0 -0.049,0.008 -0.064,0.022c-0.015,0.015 -0.022,0.037 -0.022,0.064l-0,0.256c-0,0.007 -0.003,0.012 -0.008,0.017c-0.005,0.005 -0.011,0.008 -0.018,0.008l-0.124,-0Z" style="fill:#097cba;fill-rule:nonzero;"/></g><g transform="matrix(96,0,0,96,597.548,529.181)"><path d="M0.299,0.01c-0.079,0 -0.141,-0.021 -0.188,-0.064c-0.047,-0.043 -0.071,-0.106 -0.073,-0.19l0,-0.035c0.002,-0.053 0.014,-0.098 0.036,-0.136c0.021,-0.037 0.051,-0.066 0.09,-0.086c0.038,-0.019 0.083,-0.029 0.134,-0.029c0.059,0 0.107,0.012 0.146,0.035c0.038,0.023 0.067,0.055 0.086,0.095c0.019,0.04 0.029,0.086 0.029,0.137l0,0.024c0,0.007 -0.002,0.013 -0.007,0.018c-0.005,0.005 -0.011,0.007 -0.018,0.007l-0.32,0l0,0.007c0.001,0.019 0.004,0.037 0.011,0.053c0.006,0.016 0.015,0.029 0.028,0.038c0.012,0.009 0.027,0.014 0.045,0.014c0.013,0 0.025,-0.002 0.034,-0.006c0.009,-0.005 0.016,-0.01 0.022,-0.015c0.006,-0.006 0.011,-0.011 0.014,-0.015c0.006,-0.007 0.011,-0.012 0.015,-0.013c0.003,-0.002 0.009,-0.003 0.017,-0.003l0.124,0c0.007,0 0.012,0.002 0.016,0.006c0.005,0.004 0.007,0.009 0.006,0.016c-0.001,0.011 -0.006,0.025 -0.017,0.041c-0.011,0.016 -0.026,0.032 -0.047,0.047c-0.02,0.016 -0.045,0.029 -0.076,0.039c-0.031,0.01 -0.066,0.015 -0.107,0.015Zm-0.085,-0.323l0.169,0l0,-0.002c0,-0.022 -0.003,-0.041 -0.01,-0.056c-0.006,-0.016 -0.016,-0.028 -0.028,-0.037c-0.013,-0.009 -0.029,-0.013 -0.047,-0.013c-0.017,0 -0.032,0.004 -0.045,0.013c-0.013,0.009 -0.022,0.021 -0.029,0.036c-0.007,0.016 -0.01,0.035 -0.01,0.057l0,0.002Z" style="fill:#097cba;fill-rule:nonzero;"/></g><g transform="matrix(96,0,0,96,654.572,529.181)"><path d="M0.298,0.01c-0.049,0 -0.093,-0.009 -0.131,-0.027c-0.038,-0.018 -0.068,-0.044 -0.09,-0.079c-0.023,-0.034 -0.035,-0.075 -0.037,-0.123c-0.001,-0.011 -0.001,-0.024 -0.001,-0.041c0,-0.016 0,-0.029 0.001,-0.04c0.002,-0.049 0.014,-0.09 0.036,-0.125c0.022,-0.034 0.052,-0.06 0.091,-0.078c0.038,-0.018 0.082,-0.027 0.131,-0.027c0.046,0 0.086,0.007 0.118,0.019c0.034,0.013 0.06,0.03 0.081,0.049c0.02,0.019 0.035,0.039 0.045,0.059c0.011,0.021 0.016,0.039 0.017,0.054c0.001,0.007 -0.002,0.013 -0.007,0.018c-0.005,0.005 -0.011,0.007 -0.018,0.007l-0.127,0c-0.007,0 -0.013,-0.002 -0.017,-0.005c-0.004,-0.003 -0.008,-0.008 -0.011,-0.015c-0.008,-0.021 -0.018,-0.035 -0.03,-0.044c-0.013,-0.009 -0.029,-0.013 -0.048,-0.013c-0.027,0 -0.047,0.009 -0.061,0.026c-0.015,0.017 -0.023,0.044 -0.024,0.08c-0.001,0.027 -0.001,0.05 0,0.071c0.002,0.037 0.01,0.063 0.024,0.08c0.014,0.017 0.034,0.025 0.061,0.025c0.021,-0 0.037,-0.005 0.049,-0.014c0.012,-0.009 0.022,-0.023 0.029,-0.043c0.003,-0.007 0.007,-0.012 0.011,-0.015c0.004,-0.003 0.01,-0.005 0.017,-0.005l0.127,0c0.007,-0 0.013,0.002 0.018,0.007c0.005,0.005 0.008,0.011 0.007,0.018c-0.001,0.011 -0.004,0.024 -0.01,0.039c-0.006,0.015 -0.015,0.031 -0.028,0.048c-0.013,0.017 -0.029,0.032 -0.049,0.046c-0.021,0.014 -0.045,0.025 -0.074,0.034c-0.029,0.009 -0.062,0.014 -0.1,0.014Z" style="fill:#097cba;fill-rule:nonzero;"/></g><g transform="matrix(96,0,0,96,711.212,529.181)"><path d="M0.325,-0c-0.043,-0 -0.079,-0.007 -0.111,-0.021c-0.031,-0.013 -0.054,-0.035 -0.071,-0.064c-0.017,-0.028 -0.025,-0.066 -0.025,-0.112l-0,-0.192l-0.078,0c-0.007,0 -0.014,-0.002 -0.019,-0.007c-0.005,-0.005 -0.007,-0.011 -0.007,-0.018l-0,-0.081c-0,-0.007 0.002,-0.013 0.007,-0.018c0.005,-0.005 0.012,-0.007 0.019,-0.007l0.078,0l-0,-0.165c-0,-0.007 0.002,-0.013 0.007,-0.018c0.005,-0.005 0.011,-0.007 0.018,-0.007l0.116,0c0.007,0 0.013,0.002 0.018,0.007c0.005,0.005 0.007,0.011 0.007,0.018l0,0.165l0.125,0c0.007,0 0.014,0.002 0.018,0.007c0.005,0.005 0.008,0.011 0.008,0.018l-0,0.081c-0,0.007 -0.003,0.013 -0.008,0.018c-0.005,0.005 -0.011,0.007 -0.018,0.007l-0.125,-0l0,0.178c0,0.023 0.004,0.041 0.013,0.054c0.009,0.013 0.023,0.02 0.044,0.02l0.077,-0c0.007,-0 0.013,0.002 0.018,0.007c0.005,0.005 0.007,0.011 0.007,0.018l-0,0.087c-0,0.007 -0.002,0.012 -0.007,0.017c-0.005,0.005 -0.011,0.008 -0.018,0.008l-0.093,-0Z" style="fill:#097cba;fill-rule:nonzero;"/></g><g transform="matrix(96,0,0,96,756.044,529.181)"><path d="M0.273,0.01c-0.043,0 -0.08,-0.005 -0.111,-0.015c-0.03,-0.009 -0.055,-0.021 -0.074,-0.035c-0.019,-0.014 -0.033,-0.029 -0.042,-0.044c-0.009,-0.014 -0.014,-0.028 -0.015,-0.039c-0.001,-0.007 0.002,-0.013 0.007,-0.018c0.005,-0.005 0.011,-0.007 0.017,-0.007l0.114,0c0.002,0 0.004,0 0.005,0.001c0.002,0.001 0.004,0.002 0.006,0.004c0.009,0.005 0.017,0.011 0.026,0.018c0.009,0.006 0.019,0.013 0.03,0.018c0.011,0.005 0.025,0.008 0.041,0.008c0.019,-0 0.034,-0.004 0.047,-0.011c0.013,-0.008 0.019,-0.019 0.019,-0.033c0,-0.011 -0.003,-0.019 -0.009,-0.026c-0.006,-0.007 -0.018,-0.014 -0.037,-0.021c-0.018,-0.007 -0.045,-0.013 -0.082,-0.02c-0.035,-0.008 -0.065,-0.019 -0.091,-0.032c-0.026,-0.013 -0.046,-0.03 -0.06,-0.05c-0.014,-0.022 -0.021,-0.047 -0.021,-0.077c-0,-0.027 0.009,-0.052 0.026,-0.077c0.017,-0.025 0.043,-0.045 0.076,-0.061c0.033,-0.015 0.075,-0.023 0.124,-0.023c0.038,0 0.071,0.005 0.1,0.014c0.029,0.009 0.053,0.02 0.072,0.034c0.019,0.014 0.034,0.028 0.044,0.043c0.01,0.015 0.015,0.028 0.016,0.04c0.001,0.007 -0.001,0.013 -0.006,0.018c-0.005,0.005 -0.01,0.007 -0.016,0.007l-0.104,0c-0.003,0 -0.005,-0.001 -0.008,-0.002c-0.003,-0.001 -0.005,-0.002 -0.007,-0.003c-0.008,-0.004 -0.016,-0.009 -0.024,-0.016c-0.008,-0.007 -0.017,-0.013 -0.028,-0.018c-0.011,-0.005 -0.024,-0.008 -0.04,-0.008c-0.018,0 -0.032,0.004 -0.042,0.012c-0.01,0.008 -0.015,0.018 -0.015,0.031c0,0.009 0.003,0.017 0.009,0.024c0.005,0.007 0.017,0.014 0.035,0.02c0.017,0.006 0.045,0.013 0.082,0.02c0.046,0.007 0.083,0.019 0.11,0.035c0.027,0.017 0.047,0.036 0.059,0.057c0.011,0.022 0.017,0.045 0.017,0.069c0,0.032 -0.01,0.06 -0.029,0.085c-0.019,0.025 -0.047,0.044 -0.084,0.057c-0.037,0.014 -0.083,0.021 -0.137,0.021Z" style="fill:#097cba;fill-rule:nonzero;"/></g></g><path d="M1582.79,425.62l77.473,-0l0,77.473" style="fill:none;fill-rule:nonzero;stroke:#0c7cba;stroke-width:30.99px;"/><path d="M1458.84,425.62l-77.473,-0l-0,77.473" style="fill:none;fill-rule:nonzero;stroke:#0c7cba;stroke-width:30.99px;"/><path d="M1660.27,425.62l-116.767,116.767c-14.515,14.519 -22.68,34.228 -22.684,54.758l0,107.377" style="fill:none;fill-rule:nonzero;stroke:#0c7cba;stroke-width:30.99px;"/><path d="M1427.85,472.259l-0,-0.155" style="fill:none;fill-rule:nonzero;stroke:#0c7cba;stroke-width:30.99px;"/><path d="M1458.84,503.403l-0,-0.155" style="fill:none;fill-rule:nonzero;stroke:#0c7cba;stroke-width:30.99px;"/><path d="M1489.83,534.082l-0,0.155" style="fill:none;fill-rule:nonzero;stroke:#0c7cba;stroke-width:30.99px;"/></svg>